<svg height="512" viewBox="0 0 60 60" width="512" xmlns="http://www.w3.org/2000/svg"><g id="016---Research-Blood" transform="translate(-1)"><path id="Shape" d="m46.352 4.545c-.7567082-.71822743-1.9432918-.71822743-2.7 0-2.303 2.187-7.652 7.918-7.652 13.864 0 5.291 4.037 9.591 9 9.591s9-4.3 9-9.591c0-5.946-5.349-11.677-7.648-13.864zm-1.352 21.455c-3.859 0-7-3.405-7-7.591 0-5.317 5.379-10.847 6.973-12.415 1.648 1.568 7.027 7.098 7.027 12.415 0 4.191-3.141 7.591-7 7.591z"/><path id="Shape" d="m44.239 9.735c-2.452 2.876-5.1 6.979-3.942 10.572.0937402.3588467.3783894.6363376.7395066.7209099.3611173.0845723.7393817-.0376668.9827152-.3175722.2433335-.2799053.3117634-.6714965.1777782-1.0173377-.891-2.776 1.67-6.441 3.562-8.661.2322226-.2718791.3017594-.6469951.1824165-.9840453-.1193429-.33705029-.4094345-.58482889-.761-.65000003-.3515655-.06517115-.7111939.06216622-.9434165.33404533z"/><path id="Shape" d="m45 0c-6.9548025-.00767599-13.116264 4.48291703-15.2384062 11.1060469-2.1221422 6.62313.2822138 13.858329 5.9464062 17.8939531h-9.708c-1.1045695 0-2 .8954305-2 2v2c0 1.1045695.8954305 2 2 2v3.821c-3.432849-.6352473-6.3603367-2.8623336-7.8885479-6.0012127s-1.4756819-6.816832.1415479-9.9107873l1.713 1.711-.559.559c-.3789722.3923789-.3735524 1.0160848.0121814 1.4018186s1.0094397.3911536 1.4018186.0121814l1.26-1.26.793.793c1.1736051 1.1730528 3.0759472 1.1726051 4.249-.001s1.1726051-3.0759472-.001-4.249l-.792-.792 1.263-1.263c.3789722-.3923789.3735524-1.0160848-.0121814-1.4018186s-1.0094397-.3911536-1.4018186-.0121814l-.559.559-12.304-12.314c-.5066458-.50221892-1.2424418-.69655136-1.931-.51l-4.436-4.435c.37897221-.39237889.37355237-1.01608478-.01218142-1.40181857-.3857338-.3857338-1.00943969-.39115364-1.40181858-.01218143l-4.242 4.243c-.25995658.25107447-.3642126.62287789-.27269716.97250732.09151544.34962944.3645604.6226744.71418984.71418984.34962943.09151544.72143285-.01274058.97250732-.27269716l4.435 4.435c-.19253642.6890161.00299165 1.4282729.511 1.932l3.369 3.367c-3.80176343 5.2424307-4.96990787 11.9465732-3.16526205 18.1658769 1.80464582 6.2193036 6.37987295 11.2569009 12.39726205 13.6501231l-3.78 5.5h-2.274c-.8184534-.0022822-1.5550124.4962933-1.857 1.257l-1.2 3c-.2465694.6162131-.1713797 1.3146072.200703 1.8642156.3720827.5496085.992584.8788289 1.656297.8787844h24c.663713.0000445 1.2842143-.3291759 1.656297-.8787844.3720827-.5496084.4472724-1.2480025.200703-1.8642156l-1.2-3c-.3015304-.7610739-1.0383756-1.2598431-1.857-1.257h-1.8v-4.874c1.1286517-.3327948 2.2269452-.7610055 3.283-1.28 1.4570223-.7420463 2.0473795-2.5171276 1.325-3.984l-1.76-3.612c-.7265507-1.478661-2.5095912-2.0947341-3.994-1.38-.121.058-.25.108-.375.164-.1506211-.1327975-.310711-.2544524-.479-.364v-2.67h10c1.1045695 0 2-.8954305 2-2v-1.051c5.819556.3629013 11.3752834-2.4707608 14.4982915-7.3947581s3.3181189-11.1575902.5091633-16.26725722c-2.8089556-5.10966706-8.176595-8.28522935-14.0074548-8.28698468zm-19.294 24.713c-.3941837.3842534-1.0228163.3842534-1.417 0l-.793-.794 1.42-1.42.791.792c.3915751.3932906.3911279 1.0292606-.001 1.422zm-20.171-21.592 4.24 4.24-1.414 1.414-4.24-4.239zm6.919 13.994.593.593c.2514473.2595768.623386.3632881.9728705.271275.3494846-.092013.6221315-.3654323.7131556-.7151758.091024-.3497434-.013739-.7213872-.2740261-.9720992l-5.388-5.392 2.829-2.833 12.3 12.312-2.82 2.827-3.8-3.792c-.3929089-.3784551-1.0166378-.3721707-1.4018415.0141242-.3852036.3862949-.3897235 1.0100391-.0101585 1.4018758l.616.615c-2.0915297 3.5475688-2.3741502 7.8775553-.7615046 11.6668976 1.6126455 3.7893422 4.9289183 6.5877333 8.9355046 7.5401024l-3.553 5.161c-5.5136367-2.0493384-9.7671821-6.5368523-11.51863465-12.1522233-1.75145256-5.615371-.80328892-11.7253149 2.56763465-16.5457767zm24.546 40.885h-24l1.2-3h21.6zm-18.1-5 8.947-13.013c.5657817-.8200119 1.5987875-1.1772416 2.5502682-.8819229.9514806.2953187 1.6006795 1.1746678 1.6027318 2.1709229v11.724zm16.152-12.872 1.758 3.607c.2367341.4788577.0553145 1.0592242-.412 1.318-.777246.3741872-1.5791065.6949314-2.4.96 0-4.932.1-5.285-.314-6.326.2390484-.127514.519606-.1525749.77747-.0694477.2578639.0831272.4709625.2673273.59053.5104477zm-5.052-3.1c-.093-.006-.182-.028-.276-.028-.5942531.0020667-1.1815002.1284407-1.724.371v-2.371h2zm12-4.028h-16v-2c18.453 0 11.323-.184 16 .708zm3-3c-7.7319865 0-14-6.2680135-14-14s6.2680135-14 14-14 14 6.2680135 14 14c-.0082673 7.7285595-6.2714405 13.9917327-14 14z"/><circle id="Oval" cx="29" cy="44" r="1"/><circle id="Oval" cx="44" cy="23" r="1"/></g></svg>